HIERARCHY
ROOT Hips
{
	OFFSET 0.000000 0.000000 0.000000
	CHANNELS 6 Xposition Yposition Zposition Zrotation Yrotation Xrotation 
	JOINT LHipJoint
	{
		OFFSET 0.000000 0.000000 0.000000
		CHANNELS 3 Zrotation Yrotation Xrotation
		JOINT LeftUpLeg
		{
			OFFSET 1.363060 -1.794630 0.839290
			CHANNELS 3 Zrotation Yrotation Xrotation
			JOINT LeftLeg
			{
				OFFSET 2.448110 -6.726130 0.000000
				CHANNELS 3 Zrotation Yrotation Xrotation
				JOINT LeftFoot
				{
					OFFSET 2.562200 -7.039590 0.000000
					CHANNELS 3 Zrotation Yrotation Xrotation
					JOINT LeftToeBase
					{
						OFFSET 0.157640 -0.433110 2.322550
						CHANNELS 3 Zrotation Yrotation Xrotation
						End Site
						{
							OFFSET 0.000000 0.000000 0.000000
						}
					}
				}
			}
		}
	}
	JOINT RHipJoint
	{
		OFFSET 0.000000 0.000000 0.000000
		CHANNELS 3 Zrotation Yrotation Xrotation
		JOINT RightUpLeg
		{
			OFFSET -1.305520 -1.794630 0.839290
			CHANNELS 3 Zrotation Yrotation Xrotation
			JOINT RightLeg
			{
				OFFSET -2.542530 -6.985550 0.000000
				CHANNELS 3 Zrotation Yrotation Xrotation
				JOINT RightFoot
				{
					OFFSET -2.568260 -7.056230 0.000000
					CHANNELS 3 Zrotation Yrotation Xrotation
					JOINT RightToeBase
					{
						OFFSET -0.164730 -0.452590 2.363150
						CHANNELS 3 Zrotation Yrotation Xrotation
						End Site
						{
							OFFSET 0.000000 0.000000 0.000000
						}
					}
				}
			}
		}
	}
	JOINT LowerBack
	{
		OFFSET 0.000000 0.000000 0.000000
		CHANNELS 3 Zrotation Yrotation Xrotation
		JOINT Spine
		{
			OFFSET 0.028270 2.035590 -0.193380
			CHANNELS 3 Zrotation Yrotation Xrotation
			JOINT Spine1
			{
				OFFSET 0.056720 2.048850 -0.042750
				CHANNELS 3 Zrotation Yrotation Xrotation
				JOINT Neck
				{
					OFFSET 0.000000 0.000000 0.000000
					CHANNELS 3 Zrotation Yrotation Xrotation
					JOINT Neck1
					{
						OFFSET -0.054170 1.746240 0.172020
						CHANNELS 3 Zrotation Yrotation Xrotation
						JOINT Head
						{
							OFFSET 0.104070 1.761360 -0.123970
							CHANNELS 3 Zrotation Yrotation Xrotation
							End Site
							{
								OFFSET 0.000000 0.000000 0.000000
							}
						}
					}
				}
				JOINT LeftShoulder
				{
					OFFSET 0.000000 0.000000 0.000000
					CHANNELS 3 Zrotation Yrotation Xrotation
					JOINT LeftArm
					{
						OFFSET 3.362410 1.200890 -0.311210
						CHANNELS 3 Zrotation Yrotation Xrotation
						JOINT LeftForeArm
						{
							OFFSET 4.983000 -0.000000 -0.000000
							CHANNELS 3 Zrotation Yrotation Xrotation
							JOINT LeftHand
							{
								OFFSET 3.483560 -0.000000 -0.000000
								CHANNELS 3 Zrotation Yrotation Xrotation
								JOINT LeftFingerBase
								{
									OFFSET 0.000000 0.000000 0.000000
									CHANNELS 3 Zrotation Yrotation Xrotation
									JOINT LeftHandIndex1
									{
										OFFSET 0.715260 -0.000000 -0.000000
										CHANNELS 3 Zrotation Yrotation Xrotation
										End Site
										{
											OFFSET 0.000000 0.000000 0.000000
										}
									}
								}
								JOINT LThumb
								{
									OFFSET 0.000000 0.000000 0.000000
									CHANNELS 3 Zrotation Yrotation Xrotation
									End Site
									{
										OFFSET 0.000000 0.000000 0.000000
									}
								}
							}
						}
					}
				}
				JOINT RightShoulder
				{
					OFFSET 0.000000 0.000000 0.000000
					CHANNELS 3 Zrotation Yrotation Xrotation
					JOINT RightArm
					{
						OFFSET -3.136600 1.374050 -0.404650
						CHANNELS 3 Zrotation Yrotation Xrotation
						JOINT RightForeArm
						{
							OFFSET -5.241900 -0.000000 -0.000000
							CHANNELS 3 Zrotation Yrotation Xrotation
							JOINT RightHand
							{
								OFFSET -3.444170 -0.000000 -0.000000
								CHANNELS 3 Zrotation Yrotation Xrotation
								JOINT RightFingerBase
								{
									OFFSET 0.000000 0.000000 0.000000
									CHANNELS 3 Zrotation Yrotation Xrotation
									JOINT RightHandIndex1
									{
										OFFSET -0.622530 -0.000000 -0.000000
										CHANNELS 3 Zrotation Yrotation Xrotation
										End Site
										{
											OFFSET 0.000000 0.000000 0.000000
										}
									}
								}
								JOINT RThumb
								{
									OFFSET 0.000000 0.000000 0.000000
									CHANNELS 3 Zrotation Yrotation Xrotation
									End Site
									{
										OFFSET 0.000000 0.000000 0.000000
									}
								}
							}
						}
					}
				}
			}
		}
	}
}
MOTION
Frames: 8
Frame Time: 0.008333
1.375124 18.178830 0.627513 12.200311 72.084904 28.816030 -10.020985 1.577100 4.561470 -8.080454 -0.458305 -28.843848 -3.059552 -0.785259 0.054873 -0.734602 -4.656346 21.718489 -1.635700 -0.000000 -45.775300 10.487549 -5.228031 1.495439 8.669027 -8.241317 0.039092 1.227175 -0.934397 8.387540 -0.610842 -3.003808 23.258230 -1.676400 -0.000001 -49.425000 -3.485969 3.002194 -8.222390 -2.030933 2.874418 -5.310283 -7.516432 2.898514 -2.480068 8.478779 -1.820943 -5.263905 -2.987587 -0.270586 0.674009 0.000000 0.000000 0.000000 6.581152 16.826406 0.105173 -54.011384 35.653424 14.445601 179.989611 -66.090365 179.936332 24.614312 -17.961159 -4.147220 -0.487968 0.572394 0.000000 0.000000 0.000000 0.000000 0.000000 0.000000 0.000000 5.028549 8.062174 -1.524367 94.925160 30.844124 63.775235 178.270508 68.780362 -179.965176 -8.510084 31.950936 -2.684530 0.416476 -1.632653 -0.000000 0.000000 0.000000 0.000000 0.000000 0.000000 0.000000 
1.591626 18.174010 0.664944 13.027606 72.026033 29.391231 -9.983723 1.610370 4.625672 -8.788872 -0.007188 -29.005594 -3.276086 -0.837003 -0.727466 -0.886401 -6.402362 22.657155 -2.516000 0.000000 -46.450500 10.602581 -5.242391 1.222793 8.112697 -10.026393 -0.146733 1.017497 -0.981177 10.217670 -1.043855 -6.454655 21.666254 -3.292400 -0.000001 -47.537200 -3.646303 3.006400 -8.141332 -2.049552 2.897749 -5.297691 -7.440697 2.925161 -2.436112 8.387808 -1.783864 -5.263405 -2.968440 -0.269298 0.675459 0.000000 0.000000 0.000000 6.610484 17.147722 0.187954 -54.378980 36.074055 13.189846 179.994637 -65.741527 179.935424 24.534721 -18.135129 -4.174003 -0.484684 0.577644 0.000000 0.000000 0.000000 0.000000 0.000000 0.000000 0.000000 4.865775 8.184076 -1.647784 95.474158 31.066336 64.095652 178.215024 68.904604 -179.959075 -7.660631 31.141991 -2.357576 0.397790 -1.608118 -0.000000 0.000000 0.000000 0.000000 0.000000 0.000000 0.000000 
1.805294 18.158338 0.700862 13.873685 71.988568 29.975221 -9.934268 1.641032 4.703719 -9.368278 0.178064 -29.118611 -3.432892 -0.867504 -1.141277 -0.992574 -7.703075 23.300457 -3.193000 0.000000 -46.773600 10.722034 -5.210340 0.945622 7.506020 -11.623060 -0.346171 0.822667 -1.036731 12.324394 -1.482887 -9.612244 19.717512 -4.594300 -0.000000 -44.757501 -3.803402 2.998263 -8.036852 -2.065815 2.909844 -5.275789 -7.360042 2.941820 -2.386509 8.318738 -1.764024 -5.281012 -2.963692 -0.268779 0.670675 0.000000 0.000000 0.000000 6.610761 17.428395 0.268879 -54.886421 36.373531 11.879052 179.995236 -65.438407 179.934180 24.485492 -18.302601 -4.204379 -0.481380 0.582922 0.000000 0.000000 0.000000 0.000000 0.000000 0.000000 0.000000 4.811814 8.287774 -1.737659 95.826519 31.254773 64.295532 178.184374 69.136590 -179.954112 -7.015991 30.575392 -2.121871 0.382741 -1.587148 -0.000000 0.000000 0.000000 0.000000 0.000000 0.000000 0.000000 
2.015869 18.131852 0.735166 14.668936 71.961302 30.513733 -9.879302 1.667813 4.791565 -9.773053 0.092764 -29.182259 -3.524996 -0.872938 -1.180024 -1.059445 -8.536343 23.607407 -3.623701 -0.000000 -46.780100 10.839320 -5.143407 0.678158 6.885684 -12.938024 -0.550373 0.647364 -1.110918 14.670638 -1.902550 -12.340877 17.631017 -5.520000 -0.000000 -41.750400 -3.939822 2.986040 -7.914829 -2.076924 2.916914 -5.246284 -7.275539 2.954590 -2.333876 8.260708 -1.765560 -5.317710 -2.970351 -0.268801 0.659635 0.000000 0.000000 0.000000 6.574415 17.668576 0.344247 -55.515390 36.543200 10.539457 179.991421 -65.167812 179.932630 24.476084 -18.463625 -4.240142 -0.478502 0.588325 0.000000 0.000000 0.000000 0.000000 0.000000 0.000000 0.000000 4.832816 8.369249 -1.798941 96.016552 31.400044 64.381721 178.178673 69.453389 -179.950601 -6.577303 30.189791 -1.965412 0.371928 -1.568866 -0.000000 0.000000 0.000000 0.000000 0.000000 0.000000 0.000000 
2.223272 18.094612 0.767896 15.366474 71.931013 30.971410 -9.823247 1.688994 4.887220 -9.975137 -0.270059 -29.188735 -3.550751 -0.853293 -0.859246 -1.091725 -8.897465 23.544889 -3.784201 0.000000 -46.547601 10.950197 -5.054614 0.429826 6.283407 -13.911414 -0.761980 0.491299 -1.212576 17.231200 -2.276720 -14.557838 15.605642 -6.079501 -0.000000 -39.130200 -4.045951 2.976018 -7.780466 -2.081693 2.924032 -5.211229 -7.189245 2.968345 -2.282065 8.205662 -1.790374 -5.372351 -2.986222 -0.269226 0.642857 0.000000 0.000000 0.000000 6.492766 17.867111 0.410367 -56.238411 36.582883 9.200918 179.983558 -64.913428 179.930820 24.509461 -18.618152 -4.282083 -0.476394 0.593936 0.000000 0.000000 0.000000 0.000000 0.000000 0.000000 0.000000 4.903063 8.426646 -1.835870 96.076762 31.493397 64.361286 178.195671 69.832437 -179.948663 -6.332825 29.930649 -1.876507 0.365373 -1.552424 -0.000000 0.000000 0.000000 0.000000 0.000000 0.000000 0.000000 
2.427544 18.046528 0.799256 15.953298 71.884935 31.344946 -9.766438 1.703099 4.992359 -9.973688 -0.916099 -29.138301 -3.513386 -0.812135 -0.202407 -1.093265 -8.806824 23.082954 -3.675900 0.000001 -46.176401 11.054481 -4.955598 0.205853 5.717762 -14.528543 -1.008966 0.352302 -1.348155 20.008282 -2.579833 -16.199344 13.775322 -6.314500 0.000000 -37.320100 -4.122593 2.971524 -7.641660 -2.080767 2.934350 -5.172612 -7.102588 2.986109 -2.232066 8.148856 -1.841188 -5.444281 -3.009320 -0.269928 0.620678 0.000000 0.000000 0.000000 6.365821 18.029471 0.464270 -57.029106 36.486009 7.900262 179.971755 -64.665597 179.928776 24.590093 -18.765889 -4.331400 -0.475387 0.599888 0.000000 0.000000 0.000000 0.000000 0.000000 0.000000 0.000000 5.003232 8.456051 -1.853165 96.038670 31.531227 64.245519 178.231056 70.252651 -179.948231 -6.256427 29.744118 -1.841563 0.362626 -1.536905 -0.000000 0.000000 0.000000 0.000000 0.000000 0.000000 0.000000 
2.628783 17.987395 0.829521 16.441121 71.811435 31.652363 -9.706328 1.709033 5.105796 -9.804866 -1.819324 -29.051501 -3.422271 -0.754282 0.784233 -1.068602 -8.337834 22.184299 -3.338500 0.000000 -45.747700 11.154092 -4.855620 0.010992 5.196302 -14.802853 -1.327217 0.227048 -1.519739 23.007397 -2.791744 -17.223122 12.209645 -6.278100 0.000000 -36.519200 -4.177472 2.973081 -7.506248 -2.075934 2.948889 -5.132640 -7.016902 3.008807 -2.185360 8.087467 -1.918249 -5.531179 -3.037981 -0.270827 0.593883 0.000000 0.000000 0.000000 6.197007 18.160270 0.503884 -57.858809 36.251179 6.675265 179.956196 -64.412239 179.926499 24.717123 -18.906534 -4.387891 -0.475739 0.606402 0.000000 0.000000 0.000000 0.000000 0.000000 0.000000 0.000000 5.118358 8.456114 -1.855436 95.933291 31.511387 64.046010 178.279306 70.694121 -179.949110 -6.306312 29.573119 -1.844089 0.362719 -1.521317 -0.000000 0.000000 0.000000 0.000000 0.000000 0.000000 0.000000 
2.827149 17.917023 0.859105 16.871492 71.698833 31.939395 -9.636289 1.706138 5.228231 -9.525181 -2.954721 -28.948044 -3.290768 -0.686711 2.079881 -1.020346 -7.566286 20.827790 -2.826700 -0.000000 -45.346100 11.254897 -4.759676 -0.151921 4.707585 -14.770063 -1.753484 0.111435 -1.725497 26.229115 -2.899443 -17.601415 10.919672 -6.016400 0.000000 -36.755900 -4.227799 2.978599 -7.382947 -2.070675 2.966937 -5.093525 -6.933192 3.035728 -2.142760 8.022004 -2.019781 -5.629776 -3.070945 -0.271892 0.563457 0.000000 0.000000 0.000000 5.994648 18.265467 0.528494 -58.700377 35.877271 5.563193 179.937190 -64.147713 179.923986 24.885315 -19.037910 -4.450451 -0.477587 0.613660 -0.000000 0.000000 0.000000 0.000000 0.000000 0.000000 0.000000 5.240770 8.427753 -1.846532 95.788540 31.433686 63.774093 178.334717 71.142063 -179.951036 -6.430265 29.354045 -1.864206 0.364431 -1.504483 -0.000000 0.000000 0.000000 0.000000 0.000000 0.000000 0.000000 
